# Blender v2.73 (sub 0) OBJ File: 'demo_unit.blend'
# www.blender.org
o Cube
v 0.200000 1.000000 -0.200000
v 0.200000 1.000000 0.200000
v -0.200000 1.000000 0.200000
v -0.200000 1.000000 -0.200000
v 0.200000 1.400000 -0.200000
v 0.200000 1.400000 0.200000
v -0.200000 1.400000 0.200000
v -0.200000 1.400000 -0.200000
v 0.600000 1.000000 -0.200000
v 0.600000 1.000000 0.200000
v -0.600000 1.000000 0.200000
v -0.600000 1.000000 -0.200000
v 0.600000 1.400000 -0.200000
v 0.600000 1.400000 0.200000
v -0.600000 1.400000 0.200000
v -0.600000 1.400000 -0.200000
v 0.200000 0.000000 -0.200000
v 0.200000 0.000000 0.200000
v -0.200000 0.000000 0.200000
v -0.200000 0.000000 -0.200000
v 0.600000 0.000000 -0.200000
v 0.600000 0.000000 0.200000
v -0.600000 0.000000 0.200000
v -0.600000 0.000000 -0.200000
v 0.200000 2.500000 -0.200000
v 0.200000 2.500000 0.200000
v -0.200000 2.500000 0.200000
v -0.200000 2.500000 -0.200000
v 0.200000 2.900000 -0.200000
v 0.200000 2.900000 0.200000
v -0.200000 2.900000 0.200000
v -0.200000 2.900000 -0.200000
v 0.400000 3.300000 -0.400000
v 0.400000 3.300000 0.400000
v -0.400000 3.300000 0.400000
v -0.400000 3.300000 -0.400000
v 0.272347 3.900000 -0.272347
v 0.272347 3.900000 0.272347
v -0.272347 3.900000 0.272347
v -0.272347 3.900000 -0.272347
v 1.000000 2.500000 -0.200000
v 1.000000 2.500000 0.200000
v -1.000000 2.500000 0.200000
v -1.000000 2.500000 -0.200000
v 1.000000 2.900000 -0.200000
v 1.000000 2.900000 0.200000
v -1.000000 2.900000 0.200000
v -1.000000 2.900000 -0.200000
v 0.200000 2.500000 -1.727999
v 0.200000 2.500000 1.728001
v -0.200000 2.500000 1.727999
v -0.200000 2.500000 -1.728000
v 0.200000 2.900000 -1.727999
v 0.200000 2.900000 1.728001
v -0.200000 2.900000 1.727999
v -0.200000 2.900000 -1.728000
v 0.803250 2.500000 1.728001
v -0.803251 2.500000 1.727999
v 0.803250 2.900000 1.728001
v -0.803251 2.900000 1.727999
v -0.000002 2.700000 2.980293
vt 0.858935 1.000000
vt 0.858935 0.928665
vt 0.929816 0.928665
vt 0.406402 0.711745
vt 0.406402 0.907856
vt 0.335616 0.907759
vt 0.717372 0.967880
vt 0.646491 0.967880
vt 0.646492 0.896545
vt 0.548409 0.196114
vt 0.619304 0.196114
vt 0.619304 0.267428
vt 0.141754 0.974418
vt 0.070873 0.974418
vt 0.070873 0.903083
vt 0.406620 0.267460
vt 0.335726 0.267460
vt 0.335726 0.196137
vt 0.858935 0.445864
vt 0.929721 0.445767
vt 0.929721 0.517080
vt 0.141658 0.903083
vt 0.070873 0.902986
vt 0.070873 0.831672
vt 0.264831 0.267460
vt 0.690199 0.196114
vt 0.690199 0.267428
vt 0.548409 0.267428
vt 0.548409 0.445713
vt 0.477515 0.445713
vt 0.477515 0.267428
vt 0.477515 0.196114
vt 0.406620 0.196137
vt 0.477515 0.267460
vt 0.477515 0.445767
vt 0.406620 0.445767
vt 0.264831 0.979191
vt 0.264831 0.907856
vt 0.335712 0.907857
vt 1.000000 0.695461
vt 1.000000 0.766796
vt 0.929119 0.766796
vt 0.690199 0.445713
vt 0.619304 0.445713
vt 0.335726 0.445767
vt 0.264831 0.445767
vt 0.070873 0.653389
vt 0.141658 0.653486
vt 0.929721 0.695364
vt 0.858935 0.695461
vt 0.788062 0.896325
vt 0.788062 0.718041
vt 0.858848 0.717944
vt 0.406402 0.889931
vt 0.406402 0.711647
vt 0.477187 0.711745
vt 0.973735 0.000000
vt 0.973735 0.142670
vt 0.902861 0.142670
vt 0.548409 0.000000
vt 0.619304 0.000000
vt 0.335726 0.000000
vt 0.406620 0.000000
vt 0.335616 0.711647
vt 0.754539 0.445767
vt 0.788062 0.517958
vt 0.646491 0.517958
vt 0.788062 0.717847
vt 0.788062 0.445767
vt 0.000000 0.925468
vt 0.000000 0.653389
vt 0.070873 0.653486
vt 0.761081 0.272447
vt 0.761081 0.415117
vt 0.690199 0.415117
vt 0.766872 0.624368
vt 0.670481 0.624368
vt 0.540150 0.624364
vt 0.504702 0.552187
vt 0.646492 0.552187
vt 0.106342 0.653389
vt 0.035447 0.653389
vt 0.000000 0.581403
vt 0.612750 0.802965
vt 0.541964 0.802965
vt 0.504702 0.730774
vt 0.238310 0.889959
vt 0.238310 0.987098
vt 0.141789 0.987098
vt 0.527327 0.445767
vt 0.623867 0.445767
vt 0.022625 0.474842
vt 0.119164 0.474842
vt 0.528692 0.624364
vt 0.625083 0.624364
vt 0.070785 0.925663
vt 0.070785 0.996976
vt 0.000000 0.996879
vt 0.929119 0.838207
vt 0.929119 0.766893
vt 0.999905 0.766796
vt 0.902844 0.415117
vt 0.902844 0.272447
vt 0.973718 0.272447
vt 0.831963 0.272447
vt 0.646464 0.945635
vt 0.575583 0.945635
vt 0.575583 0.802965
vt 0.831963 0.415117
vt 0.504702 0.945635
vt 0.504702 0.802965
vt 0.212670 0.747289
vt 0.212670 0.889959
vt 0.141789 0.889959
vt 0.902861 0.250252
vt 0.787965 0.896325
vt 0.858847 0.896325
vt 0.858848 0.967660
vt 0.646492 0.624465
vt 0.717365 0.624368
vt 0.831988 0.272177
vt 0.831988 0.000097
vt 0.902861 0.000000
vt 0.264831 0.448643
vt 0.198891 0.474842
vt 0.099446 0.221437
vt 0.141789 0.747289
vt 0.141789 0.474842
vt 0.761093 0.000000
vt 0.690199 0.272446
vt 0.831988 0.000000
vt 0.477284 0.890028
vt 0.477284 0.997610
vt 0.406402 0.997610
vt 0.165385 0.195237
vt 0.000000 0.260949
vt 0.212684 0.582424
vt 0.212684 0.653759
vt 0.212684 0.761342
vt 0.929119 0.928665
vt 0.858935 0.918743
vt 0.929119 0.695461
vt 0.787255 0.858551
vt 0.717365 0.846716
vt 0.787255 0.624368
vt 0.264831 0.155724
vt 0.050656 0.000000
vt 0.504702 0.711647
vt 0.264831 0.557289
vt 0.504702 0.445767
vt 0.929816 1.000000
vt 0.717372 0.896545
vt 0.141754 0.903083
vt 0.858935 0.517177
vt 0.141658 0.831769
vt 0.264831 0.196137
vt 0.335712 0.979191
vt 0.858848 0.896228
vt 0.477187 0.890028
vt 0.264831 0.711745
vt 0.683753 0.445767
vt 0.858935 0.717944
vt 0.070873 0.925566
vt 0.611044 0.624364
vt 0.141789 0.581403
vt 0.646273 0.730774
vt 0.000000 0.925566
vt 0.999905 0.838109
vt 0.973718 0.415117
vt 0.646464 0.802965
vt 0.973743 0.250252
vt 0.787965 0.967660
vt 0.717365 0.896448
vt 0.902861 0.272080
vt 0.212684 0.474842
vt 0.690199 0.000000
vt 0.406402 0.890028
vn 0.000000 -1.000000 0.000000
vn -1.000000 0.000000 -0.000000
vn 0.000000 1.000000 -0.000000
vn -0.000000 0.000000 1.000000
vn 0.000000 0.000000 -1.000000
vn 1.000000 0.000000 0.000000
vn -0.894400 -0.447200 -0.000000
vn -0.978100 0.208100 -0.000000
vn -0.000000 -0.447200 0.894400
vn 0.000000 -0.447200 -0.894400
vn 0.894400 -0.447200 0.000000
vn -0.000000 0.208100 0.978100
vn 0.000000 0.208100 -0.978100
vn 0.978100 0.208100 0.000000
vn 0.000000 0.979200 0.202900
vn 0.000000 0.849300 -0.527900
vn 0.841700 0.000000 0.539900
vn -0.841700 0.000000 0.539900
vn -0.000000 0.987500 0.157700
vn -0.000000 -0.987500 0.157700
s off
f 2/1/1 3/2/1 4/3/1
f 7/4/2 27/5/2 28/6/2
f 5/7/3 6/8/3 14/9/3
f 6/10/4 7/11/4 3/12/4
f 7/13/3 8/14/3 16/15/3
f 1/16/5 4/17/5 8/18/5
f 13/19/6 14/20/6 10/21/6
f 15/22/2 16/23/2 12/24/2
f 8/18/5 4/17/5 12/25/5
f 7/11/4 15/26/4 11/27/4
f 2/28/4 18/29/4 22/30/4
f 2/28/4 10/31/4 14/32/4
f 5/33/5 13/32/5 9/34/5
f 9/34/5 21/35/5 17/36/5
f 19/37/1 23/38/1 24/39/1
f 17/40/1 21/41/1 22/42/1
f 11/27/4 23/43/4 19/44/4
f 4/17/5 20/45/5 24/46/5
f 12/24/2 24/47/2 23/48/2
f 10/21/6 22/49/6 21/50/6
f 3/51/6 19/52/6 20/53/6
f 1/54/2 17/55/2 18/56/2
f 26/57/4 42/58/4 46/59/4
f 6/10/4 26/60/4 27/61/4
f 8/18/5 28/62/5 25/63/5
f 5/64/6 25/6/6 26/38/6
f 31/65/7 35/66/7 36/67/7
f 30/68/6 54/69/6 50/19/6
f 25/70/6 49/71/6 53/72/6
f 29/73/5 45/74/5 41/75/5
f 35/66/8 39/76/8 40/77/8
f 30/78/9 34/79/9 35/80/9
f 29/81/10 32/82/10 36/83/10
f 30/84/11 29/85/11 33/86/11
f 37/87/3 40/88/3 39/89/3
f 34/79/12 38/90/12 39/91/12
f 36/83/13 40/92/13 37/93/13
f 33/86/14 37/94/14 38/95/14
f 43/96/2 47/97/2 48/98/2
f 41/99/6 45/100/6 46/101/6
f 31/102/4 47/103/4 43/104/4
f 28/74/5 44/73/5 48/105/5
f 31/106/3 32/107/3 48/108/3
f 29/102/3 30/109/3 46/105/3
f 27/110/1 43/111/1 44/108/1
f 25/112/1 41/113/1 42/114/1
f 54/115/5 59/59/5 57/58/5
f 52/116/5 56/117/5 53/118/5
f 27/9/2 51/119/2 55/120/2
f 32/121/2 56/122/2 52/123/2
f 30/124/3 31/125/3 55/126/3
f 32/112/3 29/127/3 53/128/3
f 26/129/1 50/73/1 51/130/1
f 28/73/1 52/129/1 49/131/1
f 51/132/5 58/133/5 60/134/5
f 54/135/15 55/126/15 60/136/15
f 51/137/16 50/138/16 57/139/16
f 57/140/17 59/141/17 61/142/17
f 60/143/18 58/144/18 61/145/18
f 59/146/19 60/136/19 61/147/19
f 58/148/20 57/149/20 61/150/20
f 1/151/1 2/1/1 4/3/1
f 8/64/2 7/4/2 28/6/2
f 13/152/3 5/7/3 14/9/3
f 2/28/4 6/10/4 3/12/4
f 15/153/3 7/13/3 16/15/3
f 5/33/5 1/16/5 8/18/5
f 9/154/6 13/19/6 10/21/6
f 11/155/2 15/22/2 12/24/2
f 16/156/5 8/18/5 12/25/5
f 3/12/4 7/11/4 11/27/4
f 10/31/4 2/28/4 22/30/4
f 6/10/4 2/28/4 14/32/4
f 1/16/5 5/33/5 9/34/5
f 1/16/5 9/34/5 17/36/5
f 20/157/1 19/37/1 24/39/1
f 18/142/1 17/40/1 22/42/1
f 3/12/4 11/27/4 19/44/4
f 12/25/5 4/17/5 24/46/5
f 11/155/2 12/24/2 23/48/2
f 9/154/6 10/21/6 21/50/6
f 4/158/6 3/51/6 20/53/6
f 2/159/2 1/54/2 18/56/2
f 30/123/4 26/57/4 46/59/4
f 7/11/4 6/10/4 27/61/4
f 5/33/5 8/18/5 25/63/5
f 6/160/6 5/64/6 26/38/6
f 32/161/7 31/65/7 36/67/7
f 26/162/6 30/68/6 50/19/6
f 29/163/6 25/70/6 53/72/6
f 25/130/5 29/73/5 41/75/5
f 36/67/8 35/66/8 40/77/8
f 31/164/9 30/78/9 35/80/9
f 33/165/10 29/81/10 36/83/10
f 34/166/11 30/84/11 33/86/11
f 38/114/3 37/87/3 39/89/3
f 35/80/12 34/79/12 39/91/12
f 33/165/13 36/83/13 37/93/13
f 34/166/14 33/86/14 38/95/14
f 44/167/2 43/96/2 48/98/2
f 42/168/6 41/99/6 46/101/6
f 27/169/4 31/102/4 43/104/4
f 32/109/5 28/74/5 48/105/5
f 47/170/3 31/106/3 48/108/3
f 45/103/3 29/102/3 46/105/3
f 28/107/1 27/110/1 44/108/1
f 26/127/1 25/112/1 42/114/1
f 50/171/5 54/115/5 57/58/5
f 49/172/5 52/116/5 53/118/5
f 31/173/2 27/9/2 55/120/2
f 28/174/2 32/121/2 52/123/2
f 54/135/3 30/124/3 55/126/3
f 56/175/3 32/112/3 53/128/3
f 27/176/1 26/129/1 51/130/1
f 25/105/1 28/73/1 49/131/1
f 55/177/5 51/132/5 60/134/5
f 59/146/1 54/135/1 60/136/1
f 58/175/1 51/137/1 57/139/1
