# Blender v2.72 (sub 0) OBJ File: 'elbow.blend'
# www.blender.org
o elbow_Cube.001
v -1.000000 0.000000 1.000000
v -1.000000 0.000000 -1.000000
v 1.000000 0.000000 -1.000000
v 1.000000 0.000000 1.000000
v -1.000000 2.000000 1.000000
v -1.000000 2.000000 -1.000000
v 1.000000 2.000000 -1.000000
v 1.000000 2.000000 1.000000
v -1.000000 11.000000 1.000000
v -1.000000 11.000000 -1.000000
v 1.000000 11.000000 -1.000000
v 1.000000 11.000000 1.000000
v -1.000000 13.000000 1.000000
v -1.000000 13.000000 -1.000000
v 1.000000 13.000000 -1.000000
v 1.000000 13.000000 1.000000
v -1.000000 11.000000 9.000000
v 1.000000 11.000000 9.000000
v -1.000000 13.000000 9.000000
v 1.000000 13.000000 9.000000
vt 0.000000 0.083333
vt 0.000000 0.000000
vt 0.090909 0.000000
vt 0.909091 0.083333
vt 0.909091 0.000000
vt 1.000000 0.000000
vt 0.818182 0.083333
vt 0.818182 0.000000
vt 0.090909 0.916667
vt 0.090909 1.000000
vt 0.000000 1.000000
vt 0.363636 0.625000
vt 0.272727 0.625000
vt 0.272727 0.541667
vt 0.000000 0.916667
vt 0.000000 0.541667
vt 0.090909 0.541667
vt 0.818182 0.541667
vt 0.454545 0.541667
vt 0.454545 0.458333
vt 0.909091 0.458333
vt 0.818182 0.458333
vt 1.000000 0.083333
vt 1.000000 0.458333
vt 0.090909 0.083333
vt 0.090909 0.458333
vt 0.000000 0.458333
vt 0.181818 0.541667
vt 0.181818 0.625000
vt 0.909091 0.541667
vt 1.000000 0.541667
vt 0.363636 0.541667
vt 0.181818 0.958333
vt 0.090909 0.958333
vt 0.272727 0.875000
vt 0.181818 0.875000
vt 0.090909 0.625000
vt 0.454545 0.625000
vn -1.000000 0.000000 0.000000
vn 0.000000 0.000000 -1.000000
vn 1.000000 0.000000 0.000000
vn 0.000000 0.000000 1.000000
vn 0.000000 -1.000000 0.000000
vn 0.000000 1.000000 0.000000
s off
f 6/1/1 2/2/1 1/3/1
f 7/4/2 3/5/2 2/6/2
f 8/7/3 4/8/3 3/5/3
f 5/9/4 1/10/4 4/11/4
f 2/12/5 3/13/5 4/14/5
f 8/15/4 12/16/4 9/17/4
f 16/18/3 20/19/3 18/20/3
f 7/4/3 11/21/3 12/22/3
f 6/23/2 10/24/2 11/21/2
f 5/25/1 9/26/1 10/27/1
f 15/17/6 14/28/6 13/29/6
f 11/21/3 15/30/3 16/18/3
f 10/24/2 14/31/2 15/30/2
f 9/26/1 13/17/1 14/16/1
f 18/12/4 20/32/4 19/19/4
f 9/26/1 17/20/1 19/19/1
f 13/29/6 19/33/6 20/34/6
f 12/14/5 18/35/5 17/36/5
f 5/25/1 6/1/1 1/3/1
f 6/23/2 7/4/2 2/6/2
f 7/4/3 8/7/3 3/5/3
f 8/15/4 5/9/4 4/11/4
f 1/32/5 2/12/5 4/14/5
f 5/9/4 8/15/4 9/17/4
f 12/22/3 16/18/3 18/20/3
f 8/7/3 7/4/3 12/22/3
f 7/4/2 6/23/2 11/21/2
f 6/1/1 5/25/1 10/27/1
f 16/37/6 15/17/6 13/29/6
f 12/22/3 11/21/3 16/18/3
f 11/21/2 10/24/2 15/30/2
f 10/27/1 9/26/1 14/16/1
f 17/38/4 18/12/4 19/19/4
f 13/17/1 9/26/1 19/19/1
f 16/37/6 13/29/6 20/34/6
f 9/28/5 12/14/5 17/36/5
