# Blender v2.72 (sub 0) OBJ File: 'hammer_head.blend'
# www.blender.org
mtllib hammer_head.mtl
o Cube_Cube.001
v -1.325807 20.344957 1.325807
v -1.325807 20.344957 -0.025807
v 1.325807 20.344957 -0.025807
v 1.325807 20.344957 1.325807
v -1.325807 22.996572 1.325807
v -1.325807 22.996572 -0.025807
v 1.325807 22.996572 -0.025807
v 1.325807 22.996572 1.325807
v -2.004868 19.665897 2.574945
v 2.004868 19.665897 2.574945
v -2.004868 23.675632 2.574945
v 2.004868 23.675632 2.574945
v -2.004868 19.665897 4.374052
v 2.004868 19.665897 4.374052
v -2.004868 23.675632 4.374052
v 2.004868 23.675632 4.374052
v -1.712886 19.957878 4.506251
v 1.712886 19.957878 4.506251
v -1.712886 23.383652 4.506251
v 1.712886 23.383652 4.506251
v -1.325807 20.344957 -1.325807
v -1.325807 20.344957 0.025807
v 1.325807 20.344957 0.025807
v 1.325807 20.344957 -1.325807
v -1.325807 22.996572 -1.325807
v -1.325807 22.996572 0.025807
v 1.325807 22.996572 0.025807
v 1.325807 22.996572 -1.325807
v -2.004868 19.665897 -2.574945
v 2.004868 19.665897 -2.574945
v -2.004868 23.675632 -2.574945
v 2.004868 23.675632 -2.574945
v -2.004868 19.665897 -4.374052
v 2.004868 19.665897 -4.374052
v -2.004868 23.675632 -4.374052
v 2.004868 23.675632 -4.374052
v -1.712886 19.957878 -4.506251
v 1.712886 19.957878 -4.506251
v -1.712886 23.383652 -4.506251
v 1.712886 23.383652 -4.506251
vt 0.000100 0.168040
vt 0.167525 0.000100
vt 0.253129 0.085442
vt 0.746871 0.914070
vt 0.914296 0.746130
vt 0.999900 0.831473
vt 0.914290 0.253376
vt 0.867121 0.386156
vt 0.613944 0.132207
vt 0.832468 0.000100
vt 0.999892 0.168035
vt 0.167532 0.999412
vt 0.000108 0.831477
vt 0.085710 0.746135
vt 0.753177 0.499752
vt 0.500001 0.245803
vt 0.132880 0.613356
vt 0.386056 0.867305
vt 0.613946 0.867306
vt 0.867124 0.613350
vt 0.386054 0.132206
vt 0.132876 0.386162
vt 0.712851 0.499991
vt 0.500251 0.286229
vt 0.246823 0.499759
vt 0.499999 0.753709
vt 0.287149 0.499521
vt 0.499749 0.713283
vt 0.085704 0.253382
vt 0.832475 0.999412
vt 0.746866 0.085442
vt 0.253134 0.914070
vn -0.707100 0.707100 0.000000
vn -0.707100 -0.707100 0.000000
vn -0.654800 -0.654800 -0.377300
vn 0.654800 0.654800 -0.377300
vn 0.654800 -0.654800 -0.377300
vn 0.707100 -0.707100 0.000000
vn 0.677800 -0.677800 -0.284600
vn -0.677800 -0.677800 -0.284600
vn 0.707100 0.707100 0.000000
vn -0.654800 0.654800 -0.377300
vn 0.616900 -0.616900 0.488600
vn -0.616900 -0.616900 0.488600
vn -0.677800 0.677800 -0.284600
vn 0.677800 0.677800 -0.284600
vn 0.160500 -0.160500 0.973900
vn -0.160500 -0.160500 0.973900
vn -0.616900 0.616900 0.488600
vn 0.616900 0.616900 0.488600
vn -0.160500 0.160500 0.973900
vn 0.160500 0.160500 0.973900
vn -0.654800 -0.654800 0.377300
vn 0.654800 -0.654800 0.377300
vn 0.654800 0.654800 0.377300
vn -0.677800 -0.677800 0.284600
vn 0.677800 -0.677800 0.284600
vn -0.654800 0.654800 0.377300
vn -0.616900 -0.616900 -0.488600
vn 0.616900 -0.616900 -0.488600
vn 0.677800 0.677800 0.284600
vn -0.677800 0.677800 0.284600
vn -0.160500 -0.160500 -0.973900
vn 0.160500 -0.160500 -0.973900
vn 0.616900 0.616900 -0.488600
vn -0.616900 0.616900 -0.488600
vn -0.160500 0.160500 -0.973900
vn 0.160500 0.160500 -0.973900
usemtl Material.002
s 1
f 6/1/1 2/2/2 1/3/3
f 8/4/4 4/5/5 3/6/6
f 4/7/5 10/8/7 9/9/8
f 2/10/2 3/11/6 4/7/5
f 7/12/9 6/13/1 5/14/10
f 10/8/7 14/15/11 13/16/12
f 5/14/10 11/17/13 12/18/14
f 8/4/4 12/19/14 10/20/7
f 1/3/3 9/21/8 11/22/13
f 14/15/11 18/23/15 17/24/16
f 11/17/13 15/25/17 16/26/18
f 12/19/14 16/26/18 14/15/11
f 9/21/8 13/16/12 15/25/17
f 19/27/19 17/24/16 18/23/15
f 15/25/17 19/27/19 20/28/20
f 16/26/18 20/28/20 18/23/15
f 13/16/12 17/24/16 19/27/19
f 21/3/21 22/2/2 26/1/1
f 23/6/6 24/5/22 28/4/23
f 29/9/24 30/8/25 24/7/22
f 24/7/22 23/11/6 22/10/2
f 25/14/26 26/13/1 27/12/9
f 33/16/27 34/15/28 30/8/25
f 32/18/29 31/17/30 25/14/26
f 30/20/25 32/19/29 28/4/23
f 31/22/30 29/21/24 21/3/21
f 37/24/31 38/23/32 34/15/28
f 36/26/33 35/25/34 31/17/30
f 34/15/28 36/26/33 32/19/29
f 35/25/34 33/16/27 29/21/24
f 38/23/32 37/24/31 39/27/35
f 40/28/36 39/27/35 35/25/34
f 38/23/32 40/28/36 36/26/33
f 39/27/35 37/24/31 33/16/27
f 5/29/10 6/1/1 1/3/3
f 7/30/9 8/4/4 3/6/6
f 1/31/3 4/7/5 9/9/8
f 1/31/3 2/10/2 4/7/5
f 8/32/4 7/12/9 5/14/10
f 9/9/8 10/8/7 13/16/12
f 8/32/4 5/14/10 12/18/14
f 4/5/5 8/4/4 10/20/7
f 5/29/10 1/3/3 11/22/13
f 13/16/12 14/15/11 17/24/16
f 12/18/14 11/17/13 16/26/18
f 10/20/7 12/19/14 14/15/11
f 11/22/13 9/21/8 15/25/17
f 20/28/20 19/27/19 18/23/15
f 16/26/18 15/25/17 20/28/20
f 14/15/11 16/26/18 18/23/15
f 15/25/17 13/16/12 19/27/19
f 25/29/26 21/3/21 26/1/1
f 27/30/9 23/6/6 28/4/23
f 21/31/21 29/9/24 24/7/22
f 21/31/21 24/7/22 22/10/2
f 28/32/23 25/14/26 27/12/9
f 29/9/24 33/16/27 30/8/25
f 28/32/23 32/18/29 25/14/26
f 24/5/22 30/20/25 28/4/23
f 25/29/26 31/22/30 21/3/21
f 33/16/27 37/24/31 34/15/28
f 32/18/29 36/26/33 31/17/30
f 30/20/25 34/15/28 32/19/29
f 31/22/30 35/25/34 29/21/24
f 40/28/36 38/23/32 39/27/35
f 36/26/33 40/28/36 35/25/34
f 34/15/28 38/23/32 36/26/33
f 35/25/34 39/27/35 33/16/27
